<svg width="12" height="9" viewBox="0 0 12 9" fill="none" xmlns="http://www.w3.org/2000/svg">
<path d="M0.75 1.86719C0.75 2.16556 0.868526 2.4517 1.0795 2.66268C1.29048 2.87366 1.57663 2.99219 1.875 2.99219C2.17337 2.99219 2.45952 2.87366 2.6705 2.66268C2.88147 2.4517 3 2.16556 3 1.86719C3 1.56882 2.88147 1.28267 2.6705 1.07169C2.45952 0.860714 2.17337 0.742188 1.875 0.742188C1.57663 0.742188 1.29048 0.860714 1.0795 1.07169C0.868526 1.28267 0.75 1.56882 0.75 1.86719ZM9.5625 4.49219H8.43516C8.33672 4.49219 8.25234 4.56719 8.24531 4.66563C8.15859 5.82578 7.18359 6.74219 6 6.74219C4.81641 6.74219 3.84375 5.82578 3.75469 4.66563C3.74766 4.56719 3.66328 4.49219 3.56484 4.49219H2.4375C2.41207 4.49216 2.3869 4.4973 2.36351 4.5073C2.34013 4.5173 2.31903 4.53196 2.30149 4.55038C2.28395 4.56879 2.27034 4.59059 2.26149 4.61443C2.25264 4.63827 2.24873 4.66366 2.25 4.68906C2.35312 6.66484 3.99609 8.24219 6 8.24219C8.00391 8.24219 9.64688 6.66484 9.75 4.68906C9.75127 4.66366 9.74736 4.63827 9.73851 4.61443C9.72966 4.59059 9.71605 4.56879 9.69851 4.55038C9.68097 4.53196 9.65987 4.5173 9.63649 4.5073C9.6131 4.4973 9.58793 4.49216 9.5625 4.49219ZM9 1.86719C9 2.16556 9.11853 2.4517 9.32951 2.66268C9.54048 2.87366 9.82663 2.99219 10.125 2.99219C10.4234 2.99219 10.7095 2.87366 10.9205 2.66268C11.1315 2.4517 11.25 2.16556 11.25 1.86719C11.25 1.56882 11.1315 1.28267 10.9205 1.07169C10.7095 0.860714 10.4234 0.742188 10.125 0.742188C9.82663 0.742188 9.54048 0.860714 9.32951 1.07169C9.11853 1.28267 9 1.56882 9 1.86719Z" fill="#1890FF"/>
</svg>
