<svg width="22" height="18" viewBox="0 0 22 18" fill="none" xmlns="http://www.w3.org/2000/svg">
<path d="M20.75 0.75H1.25C0.835156 0.75 0.5 1.08516 0.5 1.5V16.5C0.5 16.9148 0.835156 17.25 1.25 17.25H20.75C21.1648 17.25 21.5 16.9148 21.5 16.5V1.5C21.5 1.08516 21.1648 0.75 20.75 0.75ZM19.8125 15.5625H2.1875V14.6273L5.43359 10.7766L8.95156 14.9484L14.4242 8.46094L19.8125 14.85V15.5625ZM19.8125 12.5203L14.5672 6.3C14.4922 6.21094 14.3562 6.21094 14.2812 6.3L8.95156 12.6188L5.57656 8.61797C5.50156 8.52891 5.36562 8.52891 5.29062 8.61797L2.1875 12.2977V2.4375H19.8125V12.5203Z" fill="#1890FF"/>
</svg>
